<?xml version="1.0" encoding="UTF-8"?>
<!DOCTYPE svg PUBLIC "-//W3C//DTD SVG 1.1//EN" "http://www.w3.org/Graphics/SVG/1.1/DTD/svg11.dtd">
<!-- Creator: CorelDRAW 2021.5 -->
<svg xmlns="http://www.w3.org/2000/svg" xml:space="preserve" width="1.34393in" height="0.346161in" version="1.1" style="shape-rendering:geometricPrecision; text-rendering:geometricPrecision; image-rendering:optimizeQuality; fill-rule:evenodd; clip-rule:evenodd"
viewBox="0 0 254.61 65.58"
 xmlns:xlink="http://www.w3.org/1999/xlink"
 xmlns:xodm="http://www.corel.com/coreldraw/odm/2003">
 <defs>
  <style type="text/css">
   <![CDATA[
    .fil0 {fill:#D9B760}
    .fil1 {fill:white;fill-rule:nonzero}
   ]]>
  </style>
 </defs>
 <g id="Layer_x0020_1">
  <metadata id="CorelCorpID_0Corel-Layer"/>
  <path class="fil0" d="M193.51 14.23c-5.79,2.81 -27.83,33.93 -22.96,40.75 4.35,6.32 31.27,-1.86 38.48,-4.76 0.4,-0.19 0.1,-0.6 -0.34,-0.5 -7.69,1.85 -27.04,3.99 -31.22,0.4 -4.83,-4.15 11.66,-33.08 17.34,-35.5 -0.03,-0.54 -0.41,-0.71 -1.29,-0.39z"/>
  <path class="fil0" d="M180.58 49.47c0,0 9.19,-22.03 15.73,-20.35 7.32,1.87 19.37,18.23 22.26,27.32l0.44 -0.76c-2.68,-11.19 -9.01,-21.48 -17.39,-31.52 -4.08,-4.6 -6.86,-4.46 -9.05,-2.2 -5.15,5.13 -9.32,13.95 -12.41,26.84 -0.17,0.78 0.08,0.86 0.43,0.68z"/>
  <path class="fil1" d="M44.08 64.98c-1.76,0.24 -3.47,0.36 -5.15,0.36 -3.27,0 -5.79,-1.04 -7.55,-3.11 -1.76,-2.08 -2.64,-4.79 -2.64,-8.14l0 -27.19c0,-3.03 -1.68,-4.55 -5.03,-4.55 -1.76,0 -3.47,0.52 -5.15,1.56 -1.68,1.06 -2.52,2.3 -2.52,3.73l0 31.2c0,2.18 0.36,4.33 1.08,6.51 -3.51,0.24 -5.99,0.24 -7.43,0 -4.55,-0.8 -6.83,-2.97 -6.83,-6.51l0 -32.5c0,-2.48 -0.04,-3.93 -0.12,-4.33 -0.24,-1.28 -1.16,-1.92 -2.76,-1.92l0.84 -2.3c6.39,0.24 10.74,2.12 13.06,5.63 2.24,-3.75 6.47,-5.63 12.7,-5.63 10.14,0 15.21,4.53 15.21,13.62l0 27.97c0,1.76 0.76,3.61 2.28,5.61z"/>
  <path class="fil1" d="M92.71 31.2c0,4.63 -1.96,8.18 -5.85,10.66 -2.3,1.52 -6.79,3.35 -13.46,5.51 -4.45,1.44 -6.69,3.35 -6.69,5.75 0,0.08 0.08,0.68 0.24,1.8 1.2,3.99 3.41,6.15 6.67,6.47l2.38 0c3.89,0 7.23,-0.6 10,-1.8l0.48 2.52c-3.91,2.08 -8.58,3.11 -14.01,3.11 -7.99,0 -13.34,-1.48 -16.05,-4.43 -1.76,-1.92 -2.64,-4.87 -2.64,-8.86l0 -18.45c0,-1.68 0.84,-3.67 2.52,-5.99 1.36,-1.92 2.87,-3.51 4.55,-4.79 4.47,-3.35 10.02,-5.03 16.65,-5.03 10.14,0 15.21,4.51 15.21,13.54zm-12.94 -1.56c0,-3.83 -2.12,-5.75 -6.35,-5.75 -3.25,0 -5.33,1.64 -6.23,4.91 -0.32,1.12 -0.48,3.83 -0.48,8.14l0 6.47c2.52,-1.04 5.73,-2.67 9.64,-4.91 1.06,-0.56 1.92,-1.88 2.56,-3.95 0.58,-1.84 0.86,-3.47 0.86,-4.91z"/>
  <path class="fil1" d="M136.26 52.12c0,8.88 -6.63,13.38 -19.88,13.46 -3.19,0 -7.51,-1.14 -12.94,-3.41l0.48 -2.46c3.11,1.2 7.27,1.8 12.46,1.8 3.67,0 5.87,-2.47 6.59,-7.45 0,-0.8 -0.04,-1.36 -0.12,-1.68 -0.08,-1.28 -0.88,-2.38 -2.39,-3.25 -0.72,-0.4 -2.08,-1.16 -4.07,-2.28l-7.19 -3.85c-6.39,-3.43 -9.58,-7.97 -9.58,-13.56 0,-3.77 2.47,-6.85 7.43,-9.26 3.43,-1.68 7.15,-2.52 11.14,-2.52 5.67,0 9.74,0.72 12.22,2.16 3.35,1.92 5.03,5.47 5.03,10.66l0 3.59c-1.52,0.32 -3.03,0.48 -4.55,0.48 -1.44,0 -2.56,-0.16 -3.35,-0.48 -3.43,-1.36 -5.15,-3.59 -5.15,-6.71 0,-2.79 -1.64,-4.19 -4.91,-4.19 -4.63,0 -6.95,1.52 -6.95,4.57 0,2.4 2,4.67 5.99,6.85l10.66 5.75c5.59,2.97 8.58,5.93 8.98,8.9 0.08,0.56 0.12,1.52 0.12,2.87z"/>
  <path class="fil1" d="M170.04 23.9l-8.62 0 0 31.04c0,2.87 0.08,4.67 0.24,5.39 0.32,1.66 1.2,2.5 2.64,2.5l-0.84 2.76c-10.14,-0.48 -15.21,-6.25 -15.21,-17.31l0 -24.37 -6.11 0 0 -6.23 6.11 0 0 -9.34c0,-2.71 -0.36,-5.43 -1.08,-8.15 3.67,-0.24 6.15,-0.24 7.43,0 4.55,0.96 6.83,3.63 6.83,8.03l0 9.46 8.62 0 0 6.23z"/>
  <path class="fil1" d="M254.61 52.12c0,8.88 -6.63,13.38 -19.88,13.46 -3.19,0 -7.51,-1.14 -12.94,-3.41l0.48 -2.46c3.11,1.2 7.27,1.8 12.46,1.8 3.67,0 5.87,-2.47 6.59,-7.45 0,-0.8 -0.04,-1.36 -0.12,-1.68 -0.08,-1.28 -0.88,-2.38 -2.39,-3.25 -0.72,-0.4 -2.08,-1.16 -4.07,-2.28l-7.19 -3.85c-6.39,-3.43 -9.58,-7.97 -9.58,-13.56 0,-3.77 2.47,-6.85 7.43,-9.26 3.43,-1.68 7.15,-2.52 11.14,-2.52 5.67,0 9.74,0.72 12.22,2.16 3.35,1.92 5.03,5.47 5.03,10.66l0 3.59c-1.52,0.32 -3.03,0.48 -4.55,0.48 -1.44,0 -2.56,-0.16 -3.35,-0.48 -3.43,-1.36 -5.15,-3.59 -5.15,-6.71 0,-2.79 -1.64,-4.19 -4.91,-4.19 -4.63,0 -6.95,1.52 -6.95,4.57 0,2.4 2,4.67 5.99,6.85l10.66 5.75c5.59,2.97 8.58,5.93 8.98,8.9 0.08,0.56 0.12,1.52 0.12,2.87z"/>
 </g>
</svg>
